<?xml version="1.0" standalone="no"?>
<!DOCTYPE svg PUBLIC "-//W3C//DTD SVG 20010904//EN"
 "http://www.w3.org/TR/2001/REC-SVG-20010904/DTD/svg10.dtd">
<svg version="1.0" xmlns="http://www.w3.org/2000/svg"
 width="1536.000000pt" height="1024.000000pt" viewBox="0 0 1536.000000 1024.000000"
 preserveAspectRatio="xMidYMid meet">

<g transform="translate(0.000000,1024.000000) scale(0.100000,-0.100000)"
fill="#000000" stroke="none">
<path d="M2620 5375 l0 -1025 215 0 215 0 0 1024 0 1025 -215 1 -215 0 0
-1025z"/>
<path d="M6523 6374 c-53 -19 -119 -83 -144 -137 -25 -56 -25 -167 0 -223 22
-49 79 -106 129 -130 50 -24 165 -24 213 0 47 22 103 78 125 125 42 85 26 221
-33 292 -64 76 -194 109 -290 73z"/>
<path d="M8386 6370 c-165 -66 -218 -271 -108 -417 13 -18 53 -47 88 -64 58
-29 71 -31 131 -27 112 8 185 58 231 157 56 122 0 281 -122 343 -59 30 -157
34 -220 8z"/>
<path d="M3835 5730 c-249 -40 -451 -213 -531 -456 -27 -83 -29 -99 -29 -249
0 -139 3 -170 24 -235 92 -297 349 -471 693 -470 217 1 372 53 512 173 l40 34
-78 114 c-42 63 -83 122 -90 132 -13 17 -18 15 -80 -27 -91 -62 -156 -80 -286
-81 -95 0 -110 3 -162 28 -68 33 -120 90 -137 149 -7 24 -15 51 -17 61 -5 16
22 17 465 17 l471 0 0 73 c0 179 -40 344 -111 462 -68 114 -216 222 -354 259
-73 20 -249 28 -330 16z m218 -351 c72 -20 156 -120 157 -186 l0 -23 -249 0
c-138 0 -252 4 -255 8 -3 5 0 24 5 43 33 105 123 169 238 169 36 0 83 -5 104
-11z"/>
<path d="M5260 5724 c-200 -43 -390 -219 -454 -422 -140 -445 66 -885 453
-967 182 -38 368 6 480 113 25 23 45 42 45 42 1 0 -2 -46 -6 -102 -5 -88 -11
-110 -40 -167 -56 -110 -161 -170 -316 -179 -137 -8 -289 36 -398 114 l-49 35
-73 -152 c-40 -83 -71 -153 -70 -154 100 -72 237 -140 336 -166 113 -30 322
-37 446 -14 269 48 470 233 537 493 18 71 19 117 19 789 l0 713 -195 0 -195 0
0 -61 0 -61 -47 42 c-121 107 -289 144 -473 104z m333 -358 c56 -23 112 -81
143 -148 27 -59 29 -71 29 -193 0 -147 -13 -190 -79 -263 -73 -80 -216 -110
-316 -65 -243 108 -232 590 15 676 57 20 153 17 208 -7z"/>
<path d="M7455 5729 c-183 -27 -323 -119 -388 -257 -30 -63 -32 -73 -32 -182
0 -105 3 -119 27 -166 29 -56 83 -108 149 -147 38 -22 160 -62 372 -122 77
-22 117 -56 117 -101 0 -63 -52 -94 -159 -94 -116 0 -250 43 -354 114 l-37 25
-44 -87 c-24 -48 -60 -115 -80 -150 l-35 -62 39 -29 c63 -46 180 -99 266 -122
110 -29 313 -36 414 -15 111 23 227 84 288 151 75 82 96 144 97 280 0 94 -3
117 -24 162 -45 101 -164 187 -321 232 -249 73 -310 102 -310 147 0 41 17 61
65 79 87 34 259 3 376 -68 l57 -34 71 146 c39 80 71 151 71 157 0 17 -144 89
-225 112 -137 40 -268 50 -400 31z"/>
<path d="M9578 5725 c-78 -20 -151 -58 -204 -107 l-44 -41 0 62 0 61 -200 0
-200 0 0 -675 0 -675 205 0 205 0 0 421 c0 284 4 435 12 466 15 62 78 127 138
143 63 17 172 7 216 -20 19 -12 45 -41 57 -64 22 -40 22 -48 25 -493 l3 -453
204 0 205 0 0 490 c0 316 -4 508 -11 542 -31 150 -127 271 -256 323 -57 23
-86 28 -183 31 -78 3 -133 -1 -172 -11z"/>
<path d="M10960 5731 c-221 -33 -402 -165 -501 -366 -72 -148 -94 -306 -65
-472 47 -270 205 -459 451 -540 71 -23 97 -26 225 -27 164 -1 236 15 362 81
70 36 148 97 148 115 0 11 -189 278 -197 278 -2 0 -19 -11 -37 -25 -17 -13
-59 -37 -91 -52 -52 -24 -73 -28 -150 -28 -81 0 -95 3 -143 30 -64 35 -96 71
-131 145 -22 48 -26 68 -26 155 0 93 2 105 33 167 54 111 142 168 257 168 90
0 145 -23 272 -116 21 -15 23 -12 122 127 56 79 101 148 101 155 0 37 -200
160 -310 190 -66 18 -243 26 -320 15z"/>
<path d="M6410 5025 l0 -675 210 0 210 0 0 675 0 675 -210 0 -210 0 0 -675z"/>
<path d="M8280 5025 l0 -675 205 0 205 0 0 675 0 675 -205 0 -205 0 0 -675z"/>
</g>
</svg>
