<svg xmlns="http://www.w3.org/2000/svg" width="1536" height="1024" viewBox="0 0 1536 1024" version="1.1"><path d="M 842.447 385.721 C 843.981 386.116, 843.557 386.538, 840.447 387.709 C 838.276 388.527, 835.746 389.248, 834.823 389.312 C 833.901 389.376, 833.321 389.711, 833.535 390.056 C 834.003 390.814, 827.846 396.923, 826.667 396.871 C 826.208 396.850, 825.533 397.168, 825.167 397.577 C 824.800 397.986, 825.063 397.997, 825.750 397.601 C 827.341 396.686, 827.361 396.547, 824.999 402.761 C 822.152 410.253, 822.417 415.568, 825.987 422.609 C 829.440 429.417, 829.510 429.668, 827.500 428 C 824.750 425.718, 825.955 427.584, 829.155 430.563 C 830.890 432.178, 831.988 432.938, 831.596 432.250 C 831.203 431.563, 831.303 431, 831.819 431 C 833.223 431, 835.087 433.580, 834.272 434.395 C 833.881 434.786, 834.409 434.780, 835.445 434.383 C 836.519 433.970, 837.084 434.055, 836.760 434.580 C 836.115 435.623, 838.482 435.955, 848.525 436.230 C 854.517 436.394, 856.262 436.024, 860.401 433.711 C 866.093 430.530, 866.702 430.400, 864.911 432.750 C 864.177 433.712, 865.022 433.178, 866.788 431.563 C 869.960 428.663, 870.945 427.298, 869 428.500 C 867.504 429.425, 867.794 427.416, 869.342 426.131 C 870.080 425.519, 871.052 425.351, 871.502 425.759 C 871.952 426.166, 872.003 425.947, 871.614 425.270 C 871.225 424.594, 871.596 422.011, 872.438 419.530 C 873.369 416.790, 873.877 412.282, 873.735 408.042 C 873.606 404.204, 873.349 401.502, 873.165 402.038 C 872.681 403.443, 871 402.156, 871 400.382 C 871 399.503, 871.478 399.177, 872.155 399.595 C 872.876 400.041, 873.037 399.869, 872.585 399.138 C 872.187 398.494, 871.413 398.245, 870.864 398.584 C 870.315 398.923, 870.009 398.510, 870.183 397.666 C 870.357 396.822, 870.253 396.214, 869.951 396.316 C 869.649 396.417, 867.411 394.796, 864.978 392.713 C 860.346 388.748, 854.188 386.531, 845.500 385.698 C 842.750 385.435, 841.376 385.445, 842.447 385.721" stroke="none" fill="#1431a0" fill-rule="evenodd"/><path d="M 262 486.500 L 262 589 283.500 589 L 305 589 305 486.500 L 305 384 283.500 384 L 262 384 262 486.500 M 652.239 386.335 C 644.389 389.182, 636.859 398.787, 635.530 407.648 C 632.069 430.727, 658.746 446.753, 677.198 432.680 C 682.172 428.885, 686.720 420.693, 687.620 413.902 C 688.980 403.651, 682.028 391.223, 672.500 386.871 C 667.880 384.761, 657.348 384.482, 652.239 386.335 M 839.969 386.476 C 837.478 387.277, 833.580 389.524, 831.308 391.469 C 816.969 403.742, 819.634 426.254, 836.500 435.327 C 842.108 438.344, 854.744 438.322, 860.500 435.285 C 868.601 431.012, 873.795 423.389, 874.721 414.413 C 875.444 407.407, 873.700 401.460, 869.162 395.459 C 862.617 386.804, 850.524 383.083, 839.969 386.476 M 841.942 386.948 C 831.113 390.234, 823 401.126, 823 412.378 C 823 418.102, 827.963 427.972, 832.632 431.533 C 840.639 437.640, 851.924 438.343, 861.171 433.310 C 872.696 427.038, 877 412.654, 871.042 400.323 C 866.168 390.235, 852.227 383.827, 841.942 386.948 M 381.322 451.098 C 356.506 455.242, 335.825 474.831, 328.803 500.846 C 325.875 511.694, 325.893 531.369, 328.840 542.300 C 336.605 571.095, 360.100 589.785, 391.154 591.871 C 409.096 593.077, 422.761 590.952, 435.060 585.046 C 442.496 581.475, 454 573.228, 454 571.469 C 454 569.950, 437.173 545, 436.149 545 C 435.731 545, 433.839 546.161, 431.944 547.579 C 418.957 557.303, 398.961 560.470, 386 554.854 C 379.390 551.990, 373.231 545.515, 371.467 539.578 C 369.401 532.620, 369.537 531.819, 372.750 532.031 C 374.262 532.130, 395.188 532.164, 419.250 532.106 L 463 532 462.992 522.250 C 462.967 489.753, 450.046 466.609, 425.709 455.467 C 414.972 450.551, 395.863 448.671, 381.322 451.098 M 524.601 451.594 C 513.830 454.200, 506.217 458.696, 496.900 467.955 C 489.967 474.844, 487.497 478.147, 484.155 485 C 477.767 498.101, 476.518 504.069, 476.518 521.500 C 476.518 532.757, 476.961 538.122, 478.293 543 C 483.492 562.042, 495.096 577.073, 511.082 585.474 C 531.377 596.139, 558.552 593.626, 573.754 579.679 L 578.309 575.500 577.733 584.532 C 576.588 602.518, 569.470 612.450, 554 617.651 C 546.299 620.240, 529.851 620.012, 521.382 617.200 C 513.990 614.744, 505.687 610.668, 501.165 607.273 C 499.303 605.874, 497.457 605.151, 496.983 605.635 C 496.517 606.111, 493.137 612.974, 489.472 620.886 L 482.810 635.273 485.655 637.622 C 490.144 641.328, 509.873 650.760, 516.738 652.483 C 536.397 657.417, 561.356 656.119, 576.848 649.358 C 596.005 640.996, 608.852 626.458, 615.175 605.984 L 617.486 598.500 617.689 527 C 617.800 487.675, 617.749 455.050, 617.574 454.500 C 617.373 453.865, 610.095 453.606, 597.629 453.791 L 578 454.082 578 460.178 L 578 466.274 573.133 461.721 C 567.363 456.324, 560.493 452.672, 553.201 451.124 C 546.064 449.610, 531.835 449.844, 524.601 451.594 M 743.519 451.006 C 731.439 453.175, 719.487 459.397, 712.456 467.180 C 704.732 475.730, 701.042 489.240, 703.030 501.690 C 704.324 509.787, 706.578 514.298, 712.020 519.676 C 718.336 525.918, 725.861 529.419, 744.740 534.896 C 754.123 537.618, 763.215 540.577, 764.944 541.471 C 771.102 544.655, 771.440 551.108, 765.675 555.398 C 763.275 557.183, 761.467 557.495, 753.675 557.468 C 742.452 557.429, 733.809 554.958, 722.739 548.623 L 714.978 544.182 712.626 548.341 C 711.333 550.628, 707.732 557.373, 704.624 563.329 L 698.974 574.159 701.237 576.063 C 705.046 579.269, 723.145 587.819, 729.500 589.415 C 743.640 592.964, 766.375 592.985, 777.253 589.457 C 801.721 581.522, 814.688 560.970, 809.514 538.327 C 805.707 521.669, 796.261 514.117, 769 505.935 C 751.225 500.600, 745.254 497.859, 744.452 494.666 C 741.347 482.295, 768.250 480.923, 787.400 492.475 C 790.644 494.433, 793.569 495.774, 793.900 495.455 C 794.230 495.137, 797.716 488.266, 801.647 480.188 L 808.795 465.500 806.647 463.598 C 803.326 460.656, 790.725 455.112, 782.198 452.841 C 773.507 450.527, 751.903 449.501, 743.519 451.006 M 956.251 451.523 C 949.384 453.401, 944.526 455.936, 938.181 460.951 L 933 465.047 933 459.523 L 933 454 913 454 L 893 454 893 521.500 L 893 589 913.500 589 L 934 589 934 548.636 C 934 525.457, 934.433 505.990, 935.017 502.910 C 937.119 491.826, 944.291 485.764, 955.500 485.596 C 964.073 485.468, 968.548 486.665, 972.511 490.143 C 978.729 495.604, 979 497.940, 979 546.182 L 979 589 1000.073 589 L 1021.147 589 1020.782 538.750 L 1020.418 488.500 1017.703 480.367 C 1012.918 466.037, 1003.924 456.699, 990.560 452.188 C 983.214 449.708, 964.235 449.340, 956.251 451.523 M 1093.500 451.078 C 1069.390 455.151, 1049.269 473.065, 1041.359 497.500 C 1037.657 508.936, 1037.024 525.954, 1039.829 538.604 C 1045.852 565.766, 1062.811 583.552, 1088.950 590.120 C 1096.202 591.942, 1099.322 592.171, 1110.950 591.729 C 1122.182 591.302, 1125.814 590.757, 1132.178 588.541 C 1140.546 585.627, 1149.699 580.389, 1155.516 575.182 L 1159.223 571.865 1156.530 568.182 C 1155.048 566.157, 1150.444 559.714, 1146.299 553.865 L 1138.762 543.229 1133.166 547.149 C 1119.356 556.823, 1101.667 556.900, 1091.026 547.333 C 1085.289 542.176, 1082.360 536.609, 1080.839 527.977 C 1078.558 515.027, 1084.073 499.748, 1093.332 493.367 C 1104.863 485.421, 1119.688 486.928, 1133.380 497.439 C 1139.278 501.967, 1138.054 502.870, 1150.874 484.532 L 1159.939 471.564 1157.719 469.174 C 1154.134 465.312, 1143.678 458.190, 1137.739 455.563 C 1126.540 450.611, 1107.622 448.693, 1093.500 451.078 M 641 521.500 L 641 589 662.500 589 L 684 589 684 521.500 L 684 454 662.500 454 L 641 454 641 521.500 M 828 521.500 L 828 589 848.500 589 L 869 589 869 521.500 L 869 454 848.500 454 L 828 454 828 521.500 M 386.082 486.576 C 379.586 488.947, 376.289 491.779, 373.493 497.389 C 368.934 506.538, 367.527 506, 396 506 C 415.345 506, 420.995 505.717, 420.978 504.750 C 420.940 502.563, 416.957 494.587, 414.688 492.153 C 408.937 485.982, 395.100 483.285, 386.082 486.576 M 542.326 486.007 C 536.747 487.160, 533.140 489.150, 529.355 493.165 C 514.051 509.397, 517.529 544.081, 535.376 553.194 C 541.035 556.084, 551.264 556.737, 557.648 554.617 C 564.734 552.263, 569.412 547.939, 573.205 540.237 C 576.354 533.842, 576.500 533.034, 576.500 522.023 C 576.500 508.993, 575.001 503.429, 569.416 495.734 C 563.893 488.123, 552.276 483.952, 542.326 486.007" stroke="none" fill="#0b0d2a" fill-rule="evenodd"/></svg>